<svg width="187" height="48" viewBox="0 0 187 48" fill="none" xmlns="http://www.w3.org/2000/svg">
<g clip-path="url(#clip0_4_139)">
<path fill-rule="evenodd" clip-rule="evenodd" d="M72.0751 40.4539L72.0564 40.457L71.9464 40.5113L71.9154 40.5175L71.8937 40.5113L71.7836 40.4555C71.767 40.4513 71.7546 40.4544 71.7464 40.4648L71.7402 40.4803L71.7138 41.1438L71.7216 41.1748L71.7371 41.195L71.8983 41.3097L71.9216 41.3159L71.9402 41.3097L72.1014 41.195L72.12 41.1702L72.1262 41.1438L72.0999 40.4818C72.0957 40.4653 72.0875 40.456 72.0751 40.4539ZM72.4843 40.2787L72.4626 40.2818L72.1774 40.426L72.1619 40.4415L72.1572 40.4586L72.1851 41.1252L72.1929 41.1438L72.2053 41.1562L72.5169 41.2989C72.5365 41.304 72.5515 41.2999 72.5619 41.2865L72.5681 41.2648L72.5153 40.3128C72.5102 40.2932 72.4998 40.2818 72.4843 40.2787ZM71.3758 40.2818C71.369 40.2777 71.3608 40.2763 71.353 40.2781C71.3453 40.2798 71.3384 40.2845 71.334 40.2911L71.3247 40.3128L71.272 41.2648C71.273 41.2834 71.2818 41.2958 71.2983 41.302L71.3216 41.2989L71.6332 41.1547L71.6487 41.1423L71.6534 41.1252L71.6813 40.4586L71.6766 40.44L71.6611 40.4245L71.3758 40.2818Z" fill="#E6C300"/>
<path fill-rule="evenodd" clip-rule="evenodd" d="M71.1543 7.49658C62.5918 7.49658 55.6509 14.4375 55.6509 23C55.6509 31.5626 62.5918 38.5035 71.1543 38.5035C79.7169 38.5035 86.6578 31.5626 86.6578 23C86.6578 14.4375 79.7169 7.49658 71.1543 7.49658ZM71.1543 9.04693C71.1543 12.7475 69.6843 16.2965 67.0675 18.9133C64.4508 21.53 60.9018 23 57.2012 23C60.9018 23 64.4508 24.4701 67.0675 27.0868C69.6843 29.7035 71.1543 33.2525 71.1543 36.9531C71.1543 33.2525 72.6244 29.7035 75.2411 27.0868C77.8578 24.4701 81.4068 23 85.1074 23C81.4068 23 77.8578 21.53 75.2411 18.9133C72.6244 16.2965 71.1543 12.7475 71.1543 9.04693Z" fill="#E6C300"/>
</g>
<path d="M12.412 36.324C11.5 36.324 10.804 36.072 10.324 35.568C9.844 35.064 9.604 34.356 9.604 33.444V15.228H3.232C2.488 15.228 1.912 15.024 1.504 14.616C1.096 14.208 0.892 13.644 0.892 12.924C0.892 12.18 1.096 11.616 1.504 11.232C1.912 10.824 2.488 10.62 3.232 10.62H21.556C22.3 10.62 22.876 10.824 23.284 11.232C23.692 11.616 23.896 12.18 23.896 12.924C23.896 13.644 23.692 14.208 23.284 14.616C22.876 15.024 22.3 15.228 21.556 15.228H15.184V33.444C15.184 34.356 14.944 35.064 14.464 35.568C14.008 36.072 13.324 36.324 12.412 36.324ZM29.1101 36.324C28.1981 36.324 27.5021 36.072 27.0221 35.568C26.5421 35.064 26.3021 34.356 26.3021 33.444V13.464C26.3021 12.528 26.5421 11.82 27.0221 11.34C27.5261 10.86 28.2341 10.62 29.1461 10.62H37.8941C40.7261 10.62 42.9101 11.304 44.4461 12.672C45.9821 14.04 46.7501 15.948 46.7501 18.396C46.7501 19.98 46.4021 21.348 45.7061 22.5C45.0101 23.652 44.0021 24.54 42.6821 25.164C41.3861 25.788 39.7901 26.1 37.8941 26.1L38.1821 25.488H39.6581C40.6661 25.488 41.5421 25.74 42.2861 26.244C43.0541 26.724 43.7141 27.468 44.2661 28.476L46.4981 32.616C46.8341 33.216 46.9901 33.804 46.9661 34.38C46.9421 34.956 46.7261 35.424 46.3181 35.784C45.9101 36.144 45.3101 36.324 44.5181 36.324C43.7261 36.324 43.0781 36.156 42.5741 35.82C42.0941 35.484 41.6621 34.968 41.2781 34.272L37.8221 27.9C37.4621 27.228 37.0181 26.772 36.4901 26.532C35.9861 26.292 35.3621 26.172 34.6181 26.172H31.8821V33.444C31.8821 34.356 31.6421 35.064 31.1621 35.568C30.7061 36.072 30.0221 36.324 29.1101 36.324ZM31.8821 22.14H36.8861C38.3741 22.14 39.4901 21.84 40.2341 21.24C41.0021 20.64 41.3861 19.74 41.3861 18.54C41.3861 17.364 41.0021 16.476 40.2341 15.876C39.4901 15.276 38.3741 14.976 36.8861 14.976H31.8821V22.14ZM113.655 39.636C114.039 40.26 114.183 40.824 114.087 41.328C113.991 41.856 113.751 42.288 113.367 42.624C112.983 42.984 112.515 43.212 111.963 43.308C111.435 43.404 110.895 43.344 110.343 43.128C109.815 42.936 109.359 42.552 108.975 41.976L106.419 37.8C106.107 37.32 105.699 36.96 105.195 36.72C104.715 36.504 104.091 36.396 103.323 36.396L107.571 34.776C108.675 34.776 109.575 34.968 110.271 35.352C110.991 35.736 111.639 36.396 112.215 37.332L113.655 39.636ZM103.359 36.396C100.863 36.396 98.6673 35.856 96.7713 34.776C94.8993 33.672 93.4353 32.136 92.3793 30.168C91.3473 28.2 90.8313 25.908 90.8313 23.292C90.8313 21.3 91.1193 19.512 91.6953 17.928C92.2953 16.32 93.1473 14.952 94.2513 13.824C95.3553 12.672 96.6753 11.784 98.2113 11.16C99.7713 10.536 101.487 10.224 103.359 10.224C105.903 10.224 108.111 10.764 109.983 11.844C111.855 12.924 113.307 14.448 114.339 16.416C115.395 18.36 115.923 20.64 115.923 23.256C115.923 25.248 115.623 27.048 115.023 28.656C114.423 30.264 113.571 31.644 112.467 32.796C111.363 33.948 110.043 34.836 108.507 35.46C106.971 36.084 105.255 36.396 103.359 36.396ZM103.359 31.644C104.775 31.644 105.975 31.32 106.959 30.672C107.967 30 108.735 29.04 109.263 27.792C109.815 26.52 110.091 25.02 110.091 23.292C110.091 20.652 109.503 18.612 108.327 17.172C107.151 15.708 105.495 14.976 103.359 14.976C101.967 14.976 100.767 15.3 99.7593 15.948C98.7513 16.596 97.9833 17.544 97.4553 18.792C96.9273 20.04 96.6633 21.54 96.6633 23.292C96.6633 25.908 97.2513 27.96 98.4273 29.448C99.6033 30.912 101.247 31.644 103.359 31.644ZM131.112 36.396C129.312 36.396 127.716 36.168 126.324 35.712C124.956 35.232 123.804 34.536 122.868 33.624C121.932 32.712 121.224 31.572 120.744 30.204C120.288 28.812 120.06 27.204 120.06 25.38V13.14C120.06 12.204 120.3 11.496 120.78 11.016C121.26 10.536 121.956 10.296 122.868 10.296C123.756 10.296 124.44 10.536 124.92 11.016C125.4 11.496 125.64 12.204 125.64 13.14V25.416C125.64 27.48 126.108 29.04 127.044 30.096C127.98 31.128 129.336 31.644 131.112 31.644C132.888 31.644 134.232 31.128 135.144 30.096C136.08 29.04 136.548 27.48 136.548 25.416V13.14C136.548 12.204 136.788 11.496 137.268 11.016C137.748 10.536 138.432 10.296 139.32 10.296C140.208 10.296 140.88 10.536 141.336 11.016C141.816 11.496 142.056 12.204 142.056 13.14V25.38C142.056 27.804 141.636 29.844 140.796 31.5C139.98 33.132 138.756 34.356 137.124 35.172C135.516 35.988 133.512 36.396 131.112 36.396ZM149.802 36.324C148.89 36.324 148.194 36.072 147.714 35.568C147.234 35.064 146.994 34.356 146.994 33.444V13.176C146.994 12.264 147.234 11.556 147.714 11.052C148.194 10.548 148.89 10.296 149.802 10.296C150.69 10.296 151.374 10.548 151.854 11.052C152.334 11.556 152.574 12.264 152.574 13.176V33.444C152.574 34.356 152.334 35.064 151.854 35.568C151.398 36.072 150.714 36.324 149.802 36.324ZM160.273 36.324C159.433 36.324 158.785 36.096 158.329 35.64C157.897 35.16 157.681 34.488 157.681 33.624V13.104C157.681 12.192 157.897 11.496 158.329 11.016C158.785 10.536 159.385 10.296 160.129 10.296C160.777 10.296 161.269 10.428 161.605 10.692C161.965 10.932 162.373 11.34 162.829 11.916L175.465 28.008H174.493V12.96C174.493 12.12 174.709 11.472 175.141 11.016C175.597 10.536 176.245 10.296 177.085 10.296C177.925 10.296 178.561 10.536 178.993 11.016C179.449 11.472 179.677 12.12 179.677 12.96V33.732C179.677 34.524 179.473 35.16 179.065 35.64C178.657 36.096 178.105 36.324 177.409 36.324C176.737 36.324 176.197 36.192 175.789 35.928C175.405 35.664 174.985 35.244 174.529 34.668L161.929 18.576H162.865V33.624C162.865 34.488 162.649 35.16 162.217 35.64C161.785 36.096 161.137 36.324 160.273 36.324Z" fill="#F0F0EC"/>
<defs>
<clipPath id="clip0_4_139">
<rect width="37.2082" height="37.2082" fill="white" transform="translate(52.5503 4.396)"/>
</clipPath>
</defs>
</svg>
